<?xml version="1.0" encoding="UTF-8" standalone="no"?>
<!-- Created with Inkscape (http://www.inkscape.org/) -->

<svg
   xmlns:osb="http://www.openswatchbook.org/uri/2009/osb"
   xmlns:dc="http://purl.org/dc/elements/1.1/"
   xmlns:cc="http://creativecommons.org/ns#"
   xmlns:rdf="http://www.w3.org/1999/02/22-rdf-syntax-ns#"
   xmlns:svg="http://www.w3.org/2000/svg"
   xmlns="http://www.w3.org/2000/svg"
   xmlns:sodipodi="http://sodipodi.sourceforge.net/DTD/sodipodi-0.dtd"
   xmlns:inkscape="http://www.inkscape.org/namespaces/inkscape"
   width="30.48mm"
   height="128.5mm"
   viewBox="0 0 30.479999 128.5"
   version="1.1"
   id="svg8"
   inkscape:version="0.92.3 (2405546, 2018-03-11)"
   sodipodi:docname="2x2Mute.svg">
  <defs
     id="defs2">
    <linearGradient
       id="linearGradient4544"
       osb:paint="gradient">
      <stop
         style="stop-color:#f4eed7;stop-opacity:1;"
         offset="0"
         id="stop4540" />
      <stop
         style="stop-color:#f4eed7;stop-opacity:0;"
         offset="1"
         id="stop4542" />
    </linearGradient>
  </defs>
  <sodipodi:namedview
     id="base"
     pagecolor="#fff6d5"
     bordercolor="#666666"
     borderopacity="1.0"
     inkscape:pageopacity="0"
     inkscape:pageshadow="2"
     inkscape:zoom="1.5957361"
     inkscape:cx="57.599999"
     inkscape:cy="242.83459"
     inkscape:document-units="mm"
     inkscape:current-layer="layer1"
     showgrid="false"
     showguides="true"
     inkscape:guide-bbox="true"
     inkscape:window-width="1920"
     inkscape:window-height="1007"
     inkscape:window-x="0"
     inkscape:window-y="35"
     inkscape:window-maximized="1"
     inkscape:pagecheckerboard="true">
    <inkscape:grid
       type="xygrid"
       id="grid14" />
    <sodipodi:guide
       position="15.24,133.58131"
       orientation="1,0"
       id="guide3719"
       inkscape:locked="false"
       inkscape:label=""
       inkscape:color="rgb(0,0,255)" />
    <sodipodi:guide
       position="22.86,132.45877"
       orientation="1,0"
       id="guide877"
       inkscape:locked="false"
       inkscape:label=""
       inkscape:color="rgb(0,0,255)" />
    <sodipodi:guide
       position="7.6200001,106.63229"
       orientation="1,0"
       id="guide940"
       inkscape:locked="false"
       inkscape:label=""
       inkscape:color="rgb(0,0,255)" />
  </sodipodi:namedview>
  <metadata
     id="metadata5">
    <rdf:RDF>
      <cc:Work
         rdf:about="">
        <dc:format>image/svg+xml</dc:format>
        <dc:type
           rdf:resource="http://purl.org/dc/dcmitype/StillImage" />
        <dc:title></dc:title>
      </cc:Work>
    </rdf:RDF>
  </metadata>
  <g
     inkscape:label="Calque 1"
     inkscape:groupmode="layer"
     id="layer1"
     transform="translate(0,-168.5)">
    <rect
       style="fill:#c8c4b7;fill-opacity:1;stroke-width:0.22877455"
       id="rect838"
       width="30.48"
       height="128.5"
       x="0"
       y="168.50002" />
    <g
       aria-label="NEX"
       style="font-style:normal;font-weight:normal;font-size:10.58333302px;line-height:1.25;font-family:sans-serif;letter-spacing:0px;word-spacing:0px;fill:#000000;fill-opacity:1;stroke:none;stroke-width:0.26458332"
       id="text3723"
       transform="translate(-5.599864,1.19997)">
      <path
         d="m 18.099295,292.68903 -1.254015,-2.72507 q 0.0096,0.10369 0.01929,0.21221 0.0072,0.0916 0.01206,0.20016 0.0072,0.10611 0.0072,0.20016 v 2.11254 h -0.409966 v -3.25321 h 0.535368 l 1.273307,2.74437 q -0.01206,-0.0965 -0.0217,-0.2074 -0.0096,-0.094 -0.01688,-0.21222 -0.0048,-0.11816 -0.0048,-0.24115 v -2.0836 h 0.41479 v 3.25321 z"
         style="font-style:normal;font-variant:normal;font-weight:normal;font-stretch:normal;font-size:4.93888903px;font-family:'Liberation Mono';-inkscape-font-specification:'Liberation Mono';stroke-width:0.26458332"
         id="path861"
         inkscape:connector-curvature="0" />
      <path
         d="m 19.435303,292.68903 v -3.25321 h 2.21623 v 0.37621 h -1.755621 v 1.01768 h 1.610927 v 0.37138 h -1.610927 v 1.11173 h 1.854495 v 0.37621 z"
         style="font-style:normal;font-variant:normal;font-weight:normal;font-stretch:normal;font-size:4.93888903px;font-family:'Liberation Mono';-inkscape-font-specification:'Liberation Mono';stroke-width:0.26458332"
         id="path863"
         inkscape:connector-curvature="0" />
      <path
         d="m 23.486736,290.67296 0.803051,-1.23714 h 0.494371 l -1.049031,1.55305 1.147906,1.70016 h -0.494371 l -0.901926,-1.38183 -0.899515,1.38183 H 22.09285 l 1.147906,-1.70016 -1.049032,-1.55305 h 0.494371 z"
         style="font-style:normal;font-variant:normal;font-weight:normal;font-stretch:normal;font-size:4.93888903px;font-family:'Liberation Mono';-inkscape-font-specification:'Liberation Mono';stroke-width:0.26458332"
         id="path865"
         inkscape:connector-curvature="0" />
    </g>
    <g
       aria-label="IN"
       style="font-style:normal;font-weight:normal;font-size:10.58333302px;line-height:1.25;font-family:sans-serif;letter-spacing:0px;word-spacing:0px;fill:#000000;fill-opacity:1;stroke:none;stroke-width:0.26458332"
       id="text899"
       transform="translate(-1.4999999,-2.5)">
      <path
         d="m 7.9999999,187 v -2.42707 h 0.27044 V 187 Z"
         style="font-style:normal;font-variant:normal;font-weight:normal;font-stretch:normal;font-size:3.52777767px;font-family:'Liberation Sans Narrow';-inkscape-font-specification:'Liberation Sans Narrow';stroke-width:0.26458332"
         id="path926"
         inkscape:connector-curvature="0" />
      <path
         d="m 10.067057,187 -1.0645343,-2.06706 q 0,0 0.00689,0.16709 0.00345,0.0706 0.00517,0.14986 0.00172,0.0775 0.00172,0.13781 V 187 H 8.776869 v -2.42707 h 0.3135037 l 1.0748693,2.08084 q -0.0034,-0.0844 -0.0086,-0.16881 -0.0034,-0.0724 -0.0069,-0.15675 -0.0017,-0.0861 -0.0017,-0.16365 v -1.59163 h 0.242879 V 187 Z"
         style="font-style:normal;font-variant:normal;font-weight:normal;font-stretch:normal;font-size:3.52777767px;font-family:'Liberation Sans Narrow';-inkscape-font-specification:'Liberation Sans Narrow';stroke-width:0.26458332"
         id="path928"
         inkscape:connector-curvature="0" />
    </g>
    <g
       aria-label="OUT"
       style="font-style:normal;font-weight:normal;font-size:10.58333302px;line-height:1.25;font-family:sans-serif;letter-spacing:0px;word-spacing:0px;fill:#000000;fill-opacity:1;stroke:none;stroke-width:0.26458332"
       id="text899-1"
       transform="translate(-8.1,-2.5)">
      <path
         d="m 29.975762,185.74081 q 0,0.28422 -0.06718,0.51677 -0.06718,0.23254 -0.194648,0.39791 -0.127469,0.16536 -0.311781,0.25493 Q 29.219564,187 28.985297,187 q -0.246324,0 -0.430637,-0.093 -0.184312,-0.0947 -0.308336,-0.26183 -0.122301,-0.16881 -0.184312,-0.39963 Q 28,186.0147 28,185.74081 q 0,-0.28422 0.06373,-0.51331 0.06546,-0.2291 0.191203,-0.3893 0.125746,-0.16192 0.310058,-0.24805 0.184313,-0.0879 0.423747,-0.0879 0.237712,0 0.422024,0.0879 0.184313,0.0879 0.308336,0.24977 0.125746,0.16192 0.191203,0.39102 0.06546,0.2291 0.06546,0.50987 z m -0.275608,0 q 0,-0.21876 -0.04651,-0.3979 -0.04651,-0.17915 -0.136082,-0.30662 -0.08957,-0.12747 -0.222208,-0.19637 -0.132637,-0.0689 -0.306614,-0.0689 -0.177422,0 -0.311781,0.0689 -0.134359,0.0689 -0.225654,0.19637 -0.08957,0.12747 -0.134358,0.30662 -0.04306,0.17914 -0.04306,0.3979 0,0.21877 0.04479,0.40136 0.04651,0.18087 0.136081,0.3135 0.08957,0.13092 0.222209,0.20498 0.134359,0.0724 0.308336,0.0724 0.186035,0 0.320394,-0.0741 0.136081,-0.0741 0.222209,-0.20498 0.08785,-0.13264 0.129191,-0.31523 0.04306,-0.18259 0.04306,-0.39791 z"
         style="font-style:normal;font-variant:normal;font-weight:normal;font-stretch:normal;font-size:3.52777767px;font-family:'Liberation Sans Narrow';-inkscape-font-specification:'Liberation Sans Narrow';stroke-width:0.26458332"
         id="path919"
         inkscape:connector-curvature="0" />
      <path
         d="m 31.147094,187 q -0.163642,0 -0.310058,-0.0534 -0.146417,-0.0534 -0.258382,-0.16537 -0.110243,-0.11369 -0.1757,-0.28594 -0.06546,-0.17398 -0.06546,-0.41169 v -1.54512 h 0.27044 v 1.51756 q 0,0.18431 0.03962,0.3135 0.04134,0.12747 0.111966,0.20843 0.07235,0.081 0.170532,0.11886 0.09819,0.0362 0.215319,0.0362 0.11541,0 0.218763,-0.0379 0.103353,-0.0379 0.180868,-0.12058 0.07751,-0.0827 0.122301,-0.21532 0.04479,-0.13436 0.04479,-0.32556 v -1.49517 h 0.268717 v 1.51412 q 0,0.24287 -0.06718,0.42202 -0.06546,0.17742 -0.179145,0.29456 -0.111966,0.11713 -0.26355,0.17397 Q 31.319349,187 31.147094,187 Z"
         style="font-style:normal;font-variant:normal;font-weight:normal;font-stretch:normal;font-size:3.52777767px;font-family:'Liberation Sans Narrow';-inkscape-font-specification:'Liberation Sans Narrow';stroke-width:0.26458332"
         id="path921"
         inkscape:connector-curvature="0" />
      <path
         d="m 33.219319,184.80719 v 2.15836 h -0.266994 v -2.15836 h -0.683852 v -0.26871 h 1.634698 v 0.26871 z"
         style="font-style:normal;font-variant:normal;font-weight:normal;font-stretch:normal;font-size:3.52777767px;font-family:'Liberation Sans Narrow';-inkscape-font-specification:'Liberation Sans Narrow';stroke-width:0.26458332"
         id="path923"
         inkscape:connector-curvature="0" />
    </g>
    <g
       aria-label="FADE IN"
       style="font-style:normal;font-weight:normal;font-size:10.58333302px;line-height:1.25;font-family:sans-serif;letter-spacing:0px;word-spacing:0px;fill:#000000;fill-opacity:1;stroke:none;stroke-width:0.26458332"
       id="text874"
       transform="translate(2.198215,32.22376)">
      <path
         d="m 9.5725024,221.50289 v 0.90261 h 1.1110436 v 0.27216 H 9.5725024 v 0.98358 H 9.303785 v -2.42707 h 1.414212 v 0.26872 z"
         style="font-style:normal;font-variant:normal;font-weight:normal;font-stretch:normal;font-size:3.52777767px;font-family:'Liberation Sans Narrow';-inkscape-font-specification:'Liberation Sans Narrow';stroke-width:0.26458332"
         id="path876"
         inkscape:connector-curvature="0" />
      <path
         d="m 12.326856,223.66124 -0.227376,-0.70969 h -0.907783 l -0.227376,0.70969 h -0.280775 l 0.813042,-2.42707 h 0.306614 l 0.799262,2.42707 z m -0.563273,-1.76733 q -0.02239,-0.0689 -0.04306,-0.13953 l -0.03617,-0.12919 -0.02756,-0.0965 q -0.01033,-0.0379 -0.01033,-0.0465 -0.0034,0.009 -0.01378,0.0482 -0.0086,0.0396 -0.02412,0.0982 l -0.0379,0.12919 -0.04134,0.13953 -0.254937,0.79754 h 0.74414 z"
         style="font-style:normal;font-variant:normal;font-weight:normal;font-stretch:normal;font-size:3.52777767px;font-family:'Liberation Sans Narrow';-inkscape-font-specification:'Liberation Sans Narrow';stroke-width:0.26458332"
         id="path878"
         inkscape:connector-curvature="0" />
      <path
         d="m 14.557556,222.42273 q 0,0.30317 -0.07579,0.53571 -0.07407,0.23082 -0.204984,0.38757 -0.129191,0.15503 -0.306613,0.23599 -0.177423,0.0792 -0.380683,0.0792 h -0.744141 v -2.42707 h 0.658013 q 0.230822,0 0.423747,0.0706 0.192926,0.0689 0.332452,0.21532 0.141249,0.1447 0.218763,0.36863 0.07924,0.22393 0.07924,0.53399 z m -0.272163,0 q 0,-0.24633 -0.05857,-0.4203 -0.05685,-0.1757 -0.16192,-0.28767 -0.103353,-0.11196 -0.249769,-0.16364 -0.144694,-0.0534 -0.318672,-0.0534 h -0.382405 v 1.89997 h 0.444417 q 0.156752,0 0.289388,-0.062 0.132636,-0.062 0.229099,-0.18431 0.09819,-0.12231 0.153307,-0.3049 0.05512,-0.18259 0.05512,-0.42374 z"
         style="font-style:normal;font-variant:normal;font-weight:normal;font-stretch:normal;font-size:3.52777767px;font-family:'Liberation Sans Narrow';-inkscape-font-specification:'Liberation Sans Narrow';stroke-width:0.26458332"
         id="path880"
         inkscape:connector-curvature="0" />
      <path
         d="m 14.933071,223.66124 v -2.42707 h 1.508952 v 0.26872 h -1.240235 v 0.77859 h 1.15583 v 0.26527 h -1.15583 v 0.84577 h 1.298801 v 0.26872 z"
         style="font-style:normal;font-variant:normal;font-weight:normal;font-stretch:normal;font-size:3.52777767px;font-family:'Liberation Sans Narrow';-inkscape-font-specification:'Liberation Sans Narrow';stroke-width:0.26458332"
         id="path882"
         inkscape:connector-curvature="0" />
    </g>
    <path
       style="fill:none;stroke:#000000;stroke-width:0.26458332px;stroke-linecap:butt;stroke-linejoin:miter;stroke-opacity:1"
       d="M 7.62,190.34724 H 22.86"
       id="path899"
       inkscape:connector-curvature="0" />
    <path
       style="fill:none;stroke:#000000;stroke-width:0.26458329px;stroke-linecap:butt;stroke-linejoin:miter;stroke-opacity:1"
       d="M 7.62,200.34724 H 22.86"
       id="path899-3"
       inkscape:connector-curvature="0" />
    <g
       aria-label="x100"
       style="font-style:normal;font-weight:normal;font-size:10.58333302px;line-height:1.25;font-family:sans-serif;letter-spacing:0px;word-spacing:0px;fill:#000000;fill-opacity:1;stroke:none;stroke-width:0.26458332"
       id="text860-3"
       transform="translate(-0.500001,15.79998)">
      <path
         d="m 21.379189,262.97244 -0.329351,-0.61185 -0.330729,0.61185 h -0.219108 l 0.43546,-0.76619 -0.41479,-0.72484 h 0.22462 l 0.304547,0.58015 0.303168,-0.58015 h 0.227376 l -0.414789,0.72209 0.440972,0.76894 z"
         style="font-style:normal;font-variant:normal;font-weight:normal;font-stretch:normal;font-size:2.82222223px;font-family:'Liberation Sans Narrow';-inkscape-font-specification:'Liberation Sans Narrow';stroke-width:0.26458332"
         id="path900-6"
         inkscape:connector-curvature="0" />
      <path
         d="m 21.807759,262.97244 v -0.21084 h 0.405143 v -1.49379 l -0.35829,0.31281 v -0.23426 l 0.376205,-0.31557 h 0.187413 v 1.73081 h 0.387228 v 0.21084 z"
         style="font-style:normal;font-variant:normal;font-weight:normal;font-stretch:normal;font-size:2.82222223px;font-family:'Liberation Sans Narrow';-inkscape-font-specification:'Liberation Sans Narrow';stroke-width:0.26458332"
         id="path902-7"
         inkscape:connector-curvature="0" />
      <path
         d="m 24.117351,262.00093 q 0,0.27974 -0.0441,0.47128 -0.04272,0.19017 -0.118512,0.30869 -0.07441,0.11713 -0.176389,0.16812 -0.100596,0.051 -0.216352,0.051 -0.115755,0 -0.216352,-0.051 -0.100596,-0.051 -0.17501,-0.16812 -0.07442,-0.11714 -0.117134,-0.30731 -0.04134,-0.19154 -0.04134,-0.47266 0,-0.29353 0.04134,-0.48507 0.04272,-0.19293 0.117134,-0.30731 0.07441,-0.11437 0.176388,-0.15985 0.101975,-0.0469 0.221865,-0.0469 0.114377,0 0.213596,0.0469 0.100596,0.0455 0.17501,0.15985 0.07441,0.11438 0.117134,0.30731 0.04272,0.19154 0.04272,0.48507 z m -0.206706,0 q 0,-0.23151 -0.02205,-0.38448 -0.02205,-0.15434 -0.06614,-0.24529 -0.0441,-0.0923 -0.108865,-0.12953 -0.06339,-0.0386 -0.144694,-0.0386 -0.08544,0 -0.151585,0.0386 -0.06615,0.0386 -0.110243,0.13091 -0.0441,0.0909 -0.06752,0.24529 -0.02205,0.15296 -0.02205,0.3831 0,0.22324 0.02205,0.3762 0.02343,0.15296 0.06752,0.24667 0.04548,0.0923 0.110243,0.13367 0.06477,0.04 0.14745,0.04 0.07993,0 0.143316,-0.04 0.06477,-0.0413 0.108865,-0.13367 0.04548,-0.0937 0.0689,-0.24667 0.0248,-0.15296 0.0248,-0.3762 z"
         style="font-style:normal;font-variant:normal;font-weight:normal;font-stretch:normal;font-size:2.82222223px;font-family:'Liberation Sans Narrow';-inkscape-font-specification:'Liberation Sans Narrow';stroke-width:0.26458332"
         id="path904-5"
         inkscape:connector-curvature="0" />
      <path
         d="m 25.407195,262.00093 q 0,0.27974 -0.0441,0.47128 -0.04272,0.19017 -0.118512,0.30869 -0.07441,0.11713 -0.176389,0.16812 -0.100596,0.051 -0.216352,0.051 -0.115755,0 -0.216352,-0.051 -0.100596,-0.051 -0.17501,-0.16812 -0.07441,-0.11714 -0.117134,-0.30731 -0.04134,-0.19154 -0.04134,-0.47266 0,-0.29353 0.04134,-0.48507 0.04272,-0.19293 0.117134,-0.30731 0.07441,-0.11437 0.176388,-0.15985 0.101975,-0.0469 0.221865,-0.0469 0.114377,0 0.213596,0.0469 0.100596,0.0455 0.17501,0.15985 0.07441,0.11438 0.117134,0.30731 0.04272,0.19154 0.04272,0.48507 z m -0.206706,0 q 0,-0.23151 -0.02205,-0.38448 -0.02205,-0.15434 -0.06614,-0.24529 -0.0441,-0.0923 -0.108865,-0.12953 -0.06339,-0.0386 -0.144694,-0.0386 -0.08544,0 -0.151585,0.0386 -0.06614,0.0386 -0.110243,0.13091 -0.0441,0.0909 -0.06752,0.24529 -0.02205,0.15296 -0.02205,0.3831 0,0.22324 0.02205,0.3762 0.02343,0.15296 0.06752,0.24667 0.04548,0.0923 0.110243,0.13367 0.06477,0.04 0.147451,0.04 0.07993,0 0.143315,-0.04 0.06477,-0.0413 0.108865,-0.13367 0.04548,-0.0937 0.0689,-0.24667 0.02481,-0.15296 0.02481,-0.3762 z"
         style="font-style:normal;font-variant:normal;font-weight:normal;font-stretch:normal;font-size:2.82222223px;font-family:'Liberation Sans Narrow';-inkscape-font-specification:'Liberation Sans Narrow';stroke-width:0.26458332"
         id="path906-3"
         inkscape:connector-curvature="0" />
    </g>
    <g
       aria-label="x1"
       style="font-style:normal;font-weight:normal;font-size:10.58333302px;line-height:1.25;font-family:sans-serif;letter-spacing:0px;word-spacing:0px;fill:#000000;fill-opacity:1;stroke:none;stroke-width:0.26458332"
       id="text860-8-5"
       transform="translate(-0.500001,16.8)">
      <path
         d="M 21.379189,268 21.049838,267.38815 20.719109,268 h -0.219108 l 0.43546,-0.76619 -0.41479,-0.72485 h 0.22462 l 0.304547,0.58016 0.303168,-0.58016 h 0.227376 L 21.165593,267.23105 21.606565,268 Z"
         style="font-style:normal;font-variant:normal;font-weight:normal;font-stretch:normal;font-size:2.82222223px;font-family:'Liberation Sans Narrow';-inkscape-font-specification:'Liberation Sans Narrow';stroke-width:0.26458332"
         id="path888-6"
         inkscape:connector-curvature="0" />
      <path
         d="m 21.807759,268 v -0.21084 h 0.405143 v -1.49379 l -0.35829,0.31281 v -0.23427 l 0.376205,-0.31557 h 0.187413 v 1.73082 h 0.387228 V 268 Z"
         style="font-style:normal;font-variant:normal;font-weight:normal;font-stretch:normal;font-size:2.82222223px;font-family:'Liberation Sans Narrow';-inkscape-font-specification:'Liberation Sans Narrow';stroke-width:0.26458332"
         id="path890-2"
         inkscape:connector-curvature="0" />
    </g>
    <g
       aria-label="x10"
       style="font-style:normal;font-weight:normal;font-size:10.58333302px;line-height:1.25;font-family:sans-serif;letter-spacing:0px;word-spacing:0px;fill:#000000;fill-opacity:1;stroke:none;stroke-width:0.26458332"
       id="text860-5-9"
       transform="translate(-0.500001,16.29998)">
      <path
         d="m 21.379189,265.47244 -0.329351,-0.61185 -0.330729,0.61185 h -0.219108 l 0.43546,-0.76619 -0.41479,-0.72484 h 0.22462 l 0.304547,0.58015 0.303168,-0.58015 h 0.227376 l -0.414789,0.72209 0.440972,0.76894 z"
         style="font-style:normal;font-variant:normal;font-weight:normal;font-stretch:normal;font-size:2.82222223px;font-family:'Liberation Sans Narrow';-inkscape-font-specification:'Liberation Sans Narrow';stroke-width:0.26458332"
         id="path893-1"
         inkscape:connector-curvature="0" />
      <path
         d="m 21.807759,265.47244 v -0.21084 h 0.405143 v -1.49379 l -0.35829,0.31281 v -0.23426 l 0.376205,-0.31557 h 0.187413 v 1.73081 h 0.387228 v 0.21084 z"
         style="font-style:normal;font-variant:normal;font-weight:normal;font-stretch:normal;font-size:2.82222223px;font-family:'Liberation Sans Narrow';-inkscape-font-specification:'Liberation Sans Narrow';stroke-width:0.26458332"
         id="path895-2"
         inkscape:connector-curvature="0" />
      <path
         d="m 24.117351,264.50093 q 0,0.27974 -0.0441,0.47128 -0.04272,0.19017 -0.118512,0.30869 -0.07441,0.11713 -0.176389,0.16812 -0.100596,0.051 -0.216352,0.051 -0.115755,0 -0.216352,-0.051 -0.100596,-0.051 -0.17501,-0.16812 -0.07442,-0.11714 -0.117134,-0.30731 -0.04134,-0.19154 -0.04134,-0.47266 0,-0.29353 0.04134,-0.48507 0.04272,-0.19293 0.117134,-0.30731 0.07441,-0.11437 0.176388,-0.15985 0.101975,-0.0469 0.221865,-0.0469 0.114377,0 0.213596,0.0469 0.100596,0.0455 0.17501,0.15985 0.07441,0.11438 0.117134,0.30731 0.04272,0.19154 0.04272,0.48507 z m -0.206706,0 q 0,-0.23151 -0.02205,-0.38448 -0.02205,-0.15434 -0.06614,-0.24529 -0.0441,-0.0923 -0.108865,-0.12953 -0.06339,-0.0386 -0.144694,-0.0386 -0.08544,0 -0.151585,0.0386 -0.06615,0.0386 -0.110243,0.13091 -0.0441,0.0909 -0.06752,0.24529 -0.02205,0.15296 -0.02205,0.3831 0,0.22324 0.02205,0.3762 0.02343,0.15296 0.06752,0.24667 0.04548,0.0923 0.110243,0.13367 0.06477,0.04 0.14745,0.04 0.07993,0 0.143316,-0.04 0.06477,-0.0413 0.108865,-0.13367 0.04548,-0.0937 0.0689,-0.24667 0.0248,-0.15296 0.0248,-0.3762 z"
         style="font-style:normal;font-variant:normal;font-weight:normal;font-stretch:normal;font-size:2.82222223px;font-family:'Liberation Sans Narrow';-inkscape-font-specification:'Liberation Sans Narrow';stroke-width:0.26458332"
         id="path897-7"
         inkscape:connector-curvature="0" />
    </g>
    <g
       aria-label="CV"
       style="font-style:normal;font-weight:normal;font-size:10.58333302px;line-height:1.25;font-family:sans-serif;letter-spacing:0px;word-spacing:0px;fill:#000000;fill-opacity:1;stroke:none;stroke-width:0.26458332"
       id="text900"
       transform="translate(-7.199746,7.34324)">
      <path
         d="m 14.241268,212.4278 q -0.168809,0 -0.299723,0.0689 -0.130914,0.0689 -0.218764,0.19637 -0.08785,0.12746 -0.134358,0.30661 -0.04479,0.17914 -0.04479,0.39791 0,0.21876 0.04823,0.40135 0.04995,0.18087 0.139526,0.31178 0.0913,0.13092 0.223931,0.20326 0.132637,0.0724 0.298001,0.0724 0.115411,0 0.210151,-0.0362 0.09474,-0.0379 0.172255,-0.10508 0.07751,-0.0672 0.137804,-0.15847 0.06029,-0.093 0.106798,-0.20499 l 0.220486,0.13436 q -0.0534,0.13608 -0.132637,0.25322 -0.07924,0.11713 -0.186035,0.20326 -0.106798,0.0861 -0.241156,0.13608 -0.134359,0.0482 -0.301446,0.0482 -0.241157,0 -0.423747,-0.093 -0.180867,-0.0947 -0.303168,-0.26182 -0.120579,-0.16881 -0.18259,-0.39964 -0.06029,-0.23082 -0.06029,-0.5047 0,-0.28422 0.06374,-0.51332 0.06546,-0.2291 0.187757,-0.3893 0.124024,-0.16192 0.304891,-0.24804 0.180868,-0.0879 0.411689,-0.0879 0.316949,0 0.530545,0.15158 0.213596,0.15158 0.313504,0.44959 l -0.254937,0.10335 q -0.02756,-0.0861 -0.07579,-0.16364 -0.04823,-0.0792 -0.120578,-0.13953 -0.07235,-0.0603 -0.16881,-0.0965 -0.09646,-0.0362 -0.220486,-0.0362 z"
         style="font-style:normal;font-variant:normal;font-weight:normal;font-stretch:normal;font-size:3.52777767px;font-family:'Liberation Sans Narrow';-inkscape-font-specification:'Liberation Sans Narrow';stroke-width:0.26458332"
         id="path908"
         inkscape:connector-curvature="0" />
      <path
         d="m 16.315216,214.62233 h -0.279053 l -0.813042,-2.42707 h 0.28422 l 0.551215,1.70877 q 0,0 0.04134,0.1533 l 0.03962,0.13781 q 0,0 0.0379,0.1378 0,0 0.03617,-0.13436 0,0 0.0379,-0.13608 l 0.04479,-0.15847 0.54777,-1.70877 h 0.28422 z"
         style="font-style:normal;font-variant:normal;font-weight:normal;font-stretch:normal;font-size:3.52777767px;font-family:'Liberation Sans Narrow';-inkscape-font-specification:'Liberation Sans Narrow';stroke-width:0.26458332"
         id="path910"
         inkscape:connector-curvature="0" />
    </g>
    <g
       aria-label="2 x 2 MUTE"
       style="font-style:normal;font-weight:normal;font-size:10.58333302px;line-height:1.25;font-family:sans-serif;letter-spacing:0px;word-spacing:0px;fill:#000000;fill-opacity:1;stroke:none;stroke-width:0.26458332"
       id="text922"
       transform="translate(-10.3)">
      <path
         d="m 16.328,177.95866 v -0.40307 q 0.08062,-0.21704 0.198438,-0.39068 0.117822,-0.1757 0.245979,-0.32039 0.128158,-0.14676 0.254248,-0.27078 0.126091,-0.12609 0.22531,-0.24185 0.101285,-0.11782 0.163297,-0.23564 0.06408,-0.11783 0.06408,-0.25012 0,-0.1943 -0.08062,-0.28732 -0.07855,-0.093 -0.233578,-0.093 -0.152962,0 -0.233577,0.10129 -0.07855,0.0992 -0.103353,0.29972 l -0.479557,-0.0331 q 0.01654,-0.17157 0.06821,-0.32246 0.05374,-0.1509 0.150895,-0.26459 0.09715,-0.11368 0.243913,-0.17776 0.146761,-0.0661 0.351399,-0.0661 0.192237,0 0.341065,0.0558 0.148828,0.0537 0.250114,0.15917 0.103352,0.10542 0.155029,0.25838 0.05374,0.15089 0.05374,0.3452 0,0.20464 -0.06615,0.37 -0.06615,0.16536 -0.169499,0.30592 -0.103353,0.1385 -0.229444,0.26045 l -0.243912,0.23772 q -0.11989,0.11575 -0.219108,0.23357 -0.09715,0.11783 -0.144694,0.25218 h 1.110009 v 0.47749 z"
         style="font-style:normal;font-variant:normal;font-weight:bold;font-stretch:condensed;font-size:4.23333311px;font-family:'Liberation Sans Narrow';-inkscape-font-specification:'Liberation Sans Narrow Bold Condensed';stroke-width:0.26458332"
         id="path924"
         inkscape:connector-curvature="0" />
      <path
         d="m 20.499321,177.95866 -0.42788,-0.81028 -0.429948,0.81028 h -0.508496 l 0.671793,-1.15548 -0.63872,-1.08107 h 0.514697 l 0.390674,0.73174 0.390673,-0.73174 h 0.516765 l -0.638721,1.07487 0.675928,1.16168 z"
         style="font-style:normal;font-variant:normal;font-weight:bold;font-stretch:condensed;font-size:4.23333311px;font-family:'Liberation Sans Narrow';-inkscape-font-specification:'Liberation Sans Narrow Bold Condensed';stroke-width:0.26458332"
         id="path927"
         inkscape:connector-curvature="0" />
      <path
         d="m 22.132297,177.95866 v -0.40307 q 0.08061,-0.21704 0.198437,-0.39068 0.117822,-0.1757 0.24598,-0.32039 0.128157,-0.14676 0.254248,-0.27078 0.12609,-0.12609 0.225309,-0.24185 0.101286,-0.11782 0.163298,-0.23564 0.06408,-0.11783 0.06408,-0.25012 0,-0.1943 -0.08061,-0.28732 -0.07855,-0.093 -0.233577,-0.093 -0.152962,0 -0.233578,0.10129 -0.07855,0.0992 -0.103353,0.29972 l -0.479557,-0.0331 q 0.01654,-0.17157 0.06821,-0.32246 0.05374,-0.1509 0.150895,-0.26459 0.09715,-0.11368 0.243913,-0.17776 0.146761,-0.0661 0.3514,-0.0661 0.192236,0 0.341064,0.0558 0.148828,0.0537 0.250114,0.15917 0.103353,0.10542 0.155029,0.25838 0.05374,0.15089 0.05374,0.3452 0,0.20464 -0.06615,0.37 -0.06615,0.16536 -0.169499,0.30592 -0.103353,0.1385 -0.229443,0.26045 l -0.243913,0.23772 q -0.119889,0.11575 -0.219108,0.23357 -0.09715,0.11783 -0.144694,0.25218 h 1.11001 v 0.47749 z"
         style="font-style:normal;font-variant:normal;font-weight:bold;font-stretch:condensed;font-size:4.23333311px;font-family:'Liberation Sans Narrow';-inkscape-font-specification:'Liberation Sans Narrow Bold Condensed';stroke-width:0.26458332"
         id="path929"
         inkscape:connector-curvature="0" />
      <path
         d="m 27.130441,177.95866 v -1.76526 q 0,-0.10542 0.0021,-0.21704 0.0021,-0.11162 0.0062,-0.20464 0,0 0.0083,-0.21291 0,0 -0.06821,0.31006 0,0 -0.02894,0.12816 l -0.02894,0.12815 -0.02687,0.11576 -0.02481,0.093 -0.429948,1.6247 h -0.3576 l -0.429948,-1.6247 q -0.01034,-0.0393 -0.02274,-0.093 l -0.02687,-0.11576 -0.03101,-0.12815 -0.02894,-0.12816 q 0,0 -0.07235,-0.31006 0.0041,0.11989 0.01034,0.23565 0.0041,0.0992 0.0062,0.20877 0.0041,0.10955 0.0041,0.19017 v 1.76526 h -0.444417 v -2.91248 h 0.669726 l 0.427881,1.62884 q 0.01654,0.0641 0.03514,0.1571 l 0.03927,0.17983 q 0,0 0.04341,0.21084 0,0 0.04547,-0.2067 0,0 0.02067,-0.0889 l 0.02067,-0.0889 q 0.01033,-0.0434 0.02067,-0.0827 l 0.0186,-0.0703 0.419613,-1.63918 h 0.667659 v 2.91248 z"
         style="font-style:normal;font-variant:normal;font-weight:bold;font-stretch:condensed;font-size:4.23333311px;font-family:'Liberation Sans Narrow';-inkscape-font-specification:'Liberation Sans Narrow Bold Condensed';stroke-width:0.26458332"
         id="path931"
         inkscape:connector-curvature="0" />
      <path
         d="m 29.032134,178.00001 q -0.223242,0 -0.409277,-0.0641 -0.186035,-0.0662 -0.320394,-0.20258 -0.134359,-0.13849 -0.21084,-0.35346 -0.07441,-0.21498 -0.07441,-0.51263 v -1.82108 h 0.500228 v 1.77354 q 0,0.18396 0.03721,0.31832 0.03721,0.13229 0.10542,0.21911 0.07028,0.0848 0.167432,0.12609 0.09922,0.0393 0.219108,0.0393 0.121956,0 0.223242,-0.0413 0.103353,-0.0434 0.1757,-0.13229 0.07441,-0.0889 0.115755,-0.22531 0.04134,-0.13642 0.04134,-0.32453 v -1.75286 h 0.500228 v 1.79007 q 0,0.29973 -0.08061,0.51883 -0.07855,0.21911 -0.221175,0.36381 -0.142627,0.14262 -0.338998,0.2129 -0.19637,0.0682 -0.429948,0.0682 z"
         style="font-style:normal;font-variant:normal;font-weight:bold;font-stretch:condensed;font-size:4.23333311px;font-family:'Liberation Sans Narrow';-inkscape-font-specification:'Liberation Sans Narrow Bold Condensed';stroke-width:0.26458332"
         id="path933"
         inkscape:connector-curvature="0" />
      <path
         d="m 31.624224,175.51747 v 2.44119 h -0.500228 v -2.44119 h -0.771013 v -0.47129 h 2.04432 v 0.47129 z"
         style="font-style:normal;font-variant:normal;font-weight:bold;font-stretch:condensed;font-size:4.23333311px;font-family:'Liberation Sans Narrow';-inkscape-font-specification:'Liberation Sans Narrow Bold Condensed';stroke-width:0.26458332"
         id="path935"
         inkscape:connector-curvature="0" />
      <path
         d="m 32.670155,177.95866 v -2.91248 h 1.878955 v 0.47129 h -1.378727 v 0.73174 h 1.275374 v 0.47129 h -1.275374 v 0.76687 h 1.44694 v 0.47129 z"
         style="font-style:normal;font-variant:normal;font-weight:bold;font-stretch:condensed;font-size:4.23333311px;font-family:'Liberation Sans Narrow';-inkscape-font-specification:'Liberation Sans Narrow Bold Condensed';stroke-width:0.26458332"
         id="path937"
         inkscape:connector-curvature="0" />
    </g>
    <path
       style="fill:none;stroke:#000000;stroke-width:0.26458332px;stroke-linecap:butt;stroke-linejoin:miter;stroke-opacity:1"
       d="M 7.62,230.34724 H 22.86"
       id="path899-3-1"
       inkscape:connector-curvature="0" />
    <path
       style="fill:none;stroke:#000000;stroke-width:0.26458332px;stroke-linecap:butt;stroke-linejoin:miter;stroke-opacity:1"
       d="M 7.62,240.34724 H 22.86"
       id="path899-3-9"
       inkscape:connector-curvature="0" />
    <path
       style="fill:none;stroke:#000000;stroke-width:0.31379563px;stroke-linecap:butt;stroke-linejoin:miter;stroke-opacity:1"
       d="m 15.396898,210.5 v 10 0"
       id="path963"
       inkscape:connector-curvature="0" />
    <rect
       style="fill:#aca793;fill-opacity:1;stroke-width:0.26458332"
       id="rect901"
       width="15.24"
       height="9.9795303"
       x="7.6199999"
       y="190.36771" />
    <rect
       style="fill:#e3e2db;fill-opacity:1;stroke-width:0.26458332"
       id="rect903"
       width="15.24"
       height="10"
       x="7.6199999"
       y="230.34724" />
  </g>
  <g
     inkscape:groupmode="layer"
     id="layer2"
     inkscape:label="components"
     style="display:none">
    <circle
       style="fill:#00ff00;stroke-width:0.26458332"
       id="path3738"
       cx="10.325807"
       cy="38.5"
       r="5"
       inkscape:label="Input" />
    <circle
       style="fill:#0000ff;stroke-width:0.26458332"
       id="path3740"
       cx="30.106001"
       cy="38.5"
       r="5"
       inkscape:label="Output" />
    <rect
       style="fill:#ff0000;stroke-width:0.26458332"
       id="rect3742"
       width="16"
       height="16"
       x="12.435484"
       y="54.716125" />
    <rect
       style="fill:#ff00ff;stroke-width:0.26458332"
       id="rect3744"
       width="14"
       height="14"
       x="13.435"
       y="55.716" />
  </g>
</svg>
