<?xml version="1.0" encoding="UTF-8" standalone="no"?>
<!-- Created with Inkscape (http://www.inkscape.org/) -->

<svg
   xmlns:osb="http://www.openswatchbook.org/uri/2009/osb"
   xmlns:dc="http://purl.org/dc/elements/1.1/"
   xmlns:cc="http://creativecommons.org/ns#"
   xmlns:rdf="http://www.w3.org/1999/02/22-rdf-syntax-ns#"
   xmlns:svg="http://www.w3.org/2000/svg"
   xmlns="http://www.w3.org/2000/svg"
   xmlns:sodipodi="http://sodipodi.sourceforge.net/DTD/sodipodi-0.dtd"
   xmlns:inkscape="http://www.inkscape.org/namespaces/inkscape"
   width="30.48mm"
   height="128.5mm"
   viewBox="0 0 30.479999 128.5"
   version="1.1"
   id="svg8"
   inkscape:version="0.92.3 (2405546, 2018-03-11)"
   sodipodi:docname="DoubleMute.svg">
  <defs
     id="defs2">
    <linearGradient
       id="linearGradient4544"
       osb:paint="gradient">
      <stop
         style="stop-color:#f4eed7;stop-opacity:1;"
         offset="0"
         id="stop4540" />
      <stop
         style="stop-color:#f4eed7;stop-opacity:0;"
         offset="1"
         id="stop4542" />
    </linearGradient>
  </defs>
  <sodipodi:namedview
     id="base"
     pagecolor="#fff6d5"
     bordercolor="#666666"
     borderopacity="1.0"
     inkscape:pageopacity="0"
     inkscape:pageshadow="2"
     inkscape:zoom="1.4142136"
     inkscape:cx="-39.385628"
     inkscape:cy="251.12229"
     inkscape:document-units="mm"
     inkscape:current-layer="layer1"
     showgrid="false"
     showguides="true"
     inkscape:guide-bbox="true"
     inkscape:window-width="1920"
     inkscape:window-height="1007"
     inkscape:window-x="0"
     inkscape:window-y="35"
     inkscape:window-maximized="1"
     inkscape:pagecheckerboard="true">
    <inkscape:grid
       type="xygrid"
       id="grid14" />
    <sodipodi:guide
       position="15.24,135.4522"
       orientation="1,0"
       id="guide3719"
       inkscape:locked="false"
       inkscape:label=""
       inkscape:color="rgb(0,0,255)" />
    <sodipodi:guide
       position="7.6200002,104.76965"
       orientation="1,0"
       id="guide875"
       inkscape:locked="false"
       inkscape:label=""
       inkscape:color="rgb(0,0,255)" />
    <sodipodi:guide
       position="22.860001,105.7051"
       orientation="1,0"
       id="guide877"
       inkscape:locked="false"
       inkscape:label=""
       inkscape:color="rgb(0,0,255)" />
  </sodipodi:namedview>
  <metadata
     id="metadata5">
    <rdf:RDF>
      <cc:Work
         rdf:about="">
        <dc:format>image/svg+xml</dc:format>
        <dc:type
           rdf:resource="http://purl.org/dc/dcmitype/StillImage" />
        <dc:title />
      </cc:Work>
    </rdf:RDF>
  </metadata>
  <g
     inkscape:label="Calque 1"
     inkscape:groupmode="layer"
     id="layer1"
     transform="translate(0,-168.5)">
    <rect
       style="fill:#c8c4b7;fill-opacity:1;stroke-width:0.22877452"
       id="rect838"
       width="30.48"
       height="128.5"
       x="0"
       y="168.50002" />
    <g
       aria-label="NEX"
       style="font-style:normal;font-weight:normal;font-size:10.58333302px;line-height:1.25;font-family:sans-serif;letter-spacing:0px;word-spacing:0px;fill:#000000;fill-opacity:1;stroke:none;stroke-width:0.26458332"
       id="text3723"
       transform="translate(-5.299864,1.19997)">
      <path
         d="m 18.099295,292.68903 -1.254015,-2.72507 q 0.0096,0.10369 0.01929,0.21221 0.0072,0.0916 0.01206,0.20016 0.0072,0.10611 0.0072,0.20016 v 2.11254 h -0.409966 v -3.25321 h 0.535368 l 1.273307,2.74437 q -0.01206,-0.0965 -0.0217,-0.2074 -0.0096,-0.094 -0.01688,-0.21222 -0.0048,-0.11816 -0.0048,-0.24115 v -2.0836 h 0.41479 v 3.25321 z"
         style="font-style:normal;font-variant:normal;font-weight:normal;font-stretch:normal;font-size:4.93888903px;font-family:'Liberation Mono';-inkscape-font-specification:'Liberation Mono';stroke-width:0.26458332"
         id="path861"
         inkscape:connector-curvature="0" />
      <path
         d="m 19.435303,292.68903 v -3.25321 h 2.21623 v 0.37621 h -1.755621 v 1.01768 h 1.610927 v 0.37138 h -1.610927 v 1.11173 h 1.854495 v 0.37621 z"
         style="font-style:normal;font-variant:normal;font-weight:normal;font-stretch:normal;font-size:4.93888903px;font-family:'Liberation Mono';-inkscape-font-specification:'Liberation Mono';stroke-width:0.26458332"
         id="path863"
         inkscape:connector-curvature="0" />
      <path
         d="m 23.486736,290.67296 0.803051,-1.23714 h 0.494371 l -1.049031,1.55305 1.147906,1.70016 h -0.494371 l -0.901926,-1.38183 -0.899515,1.38183 H 22.09285 l 1.147906,-1.70016 -1.049032,-1.55305 h 0.494371 z"
         style="font-style:normal;font-variant:normal;font-weight:normal;font-stretch:normal;font-size:4.93888903px;font-family:'Liberation Mono';-inkscape-font-specification:'Liberation Mono';stroke-width:0.26458332"
         id="path865"
         inkscape:connector-curvature="0" />
    </g>
    <g
       aria-label="x100"
       style="font-style:normal;font-weight:normal;font-size:10.58333302px;line-height:1.25;font-family:sans-serif;letter-spacing:0px;word-spacing:0px;fill:#000000;fill-opacity:1;stroke:none;stroke-width:0.26458332"
       id="text860"
       transform="translate(-1.500001,15.79998)">
      <path
         d="m 21.379189,262.97244 -0.329351,-0.61185 -0.330729,0.61185 h -0.219108 l 0.43546,-0.76619 -0.41479,-0.72484 h 0.22462 l 0.304547,0.58015 0.303168,-0.58015 h 0.227376 l -0.414789,0.72209 0.440972,0.76894 z"
         style="font-style:normal;font-variant:normal;font-weight:normal;font-stretch:normal;font-size:2.82222223px;font-family:'Liberation Sans Narrow';-inkscape-font-specification:'Liberation Sans Narrow';stroke-width:0.26458332"
         id="path900"
         inkscape:connector-curvature="0" />
      <path
         d="m 21.807759,262.97244 v -0.21084 h 0.405143 v -1.49379 l -0.35829,0.31281 v -0.23426 l 0.376205,-0.31557 h 0.187413 v 1.73081 h 0.387228 v 0.21084 z"
         style="font-style:normal;font-variant:normal;font-weight:normal;font-stretch:normal;font-size:2.82222223px;font-family:'Liberation Sans Narrow';-inkscape-font-specification:'Liberation Sans Narrow';stroke-width:0.26458332"
         id="path902"
         inkscape:connector-curvature="0" />
      <path
         d="m 24.117351,262.00093 q 0,0.27974 -0.0441,0.47128 -0.04272,0.19017 -0.118512,0.30869 -0.07441,0.11713 -0.176389,0.16812 -0.100596,0.051 -0.216352,0.051 -0.115755,0 -0.216352,-0.051 -0.100596,-0.051 -0.17501,-0.16812 -0.07442,-0.11714 -0.117134,-0.30731 -0.04134,-0.19154 -0.04134,-0.47266 0,-0.29353 0.04134,-0.48507 0.04272,-0.19293 0.117134,-0.30731 0.07441,-0.11437 0.176388,-0.15985 0.101975,-0.0469 0.221865,-0.0469 0.114377,0 0.213596,0.0469 0.100596,0.0455 0.17501,0.15985 0.07441,0.11438 0.117134,0.30731 0.04272,0.19154 0.04272,0.48507 z m -0.206706,0 q 0,-0.23151 -0.02205,-0.38448 -0.02205,-0.15434 -0.06614,-0.24529 -0.0441,-0.0923 -0.108865,-0.12953 -0.06339,-0.0386 -0.144694,-0.0386 -0.08544,0 -0.151585,0.0386 -0.06615,0.0386 -0.110243,0.13091 -0.0441,0.0909 -0.06752,0.24529 -0.02205,0.15296 -0.02205,0.3831 0,0.22324 0.02205,0.3762 0.02343,0.15296 0.06752,0.24667 0.04548,0.0923 0.110243,0.13367 0.06477,0.04 0.14745,0.04 0.07993,0 0.143316,-0.04 0.06477,-0.0413 0.108865,-0.13367 0.04548,-0.0937 0.0689,-0.24667 0.0248,-0.15296 0.0248,-0.3762 z"
         style="font-style:normal;font-variant:normal;font-weight:normal;font-stretch:normal;font-size:2.82222223px;font-family:'Liberation Sans Narrow';-inkscape-font-specification:'Liberation Sans Narrow';stroke-width:0.26458332"
         id="path904"
         inkscape:connector-curvature="0" />
      <path
         d="m 25.407195,262.00093 q 0,0.27974 -0.0441,0.47128 -0.04272,0.19017 -0.118512,0.30869 -0.07441,0.11713 -0.176389,0.16812 -0.100596,0.051 -0.216352,0.051 -0.115755,0 -0.216352,-0.051 -0.100596,-0.051 -0.17501,-0.16812 -0.07441,-0.11714 -0.117134,-0.30731 -0.04134,-0.19154 -0.04134,-0.47266 0,-0.29353 0.04134,-0.48507 0.04272,-0.19293 0.117134,-0.30731 0.07441,-0.11437 0.176388,-0.15985 0.101975,-0.0469 0.221865,-0.0469 0.114377,0 0.213596,0.0469 0.100596,0.0455 0.17501,0.15985 0.07441,0.11438 0.117134,0.30731 0.04272,0.19154 0.04272,0.48507 z m -0.206706,0 q 0,-0.23151 -0.02205,-0.38448 -0.02205,-0.15434 -0.06614,-0.24529 -0.0441,-0.0923 -0.108865,-0.12953 -0.06339,-0.0386 -0.144694,-0.0386 -0.08544,0 -0.151585,0.0386 -0.06614,0.0386 -0.110243,0.13091 -0.0441,0.0909 -0.06752,0.24529 -0.02205,0.15296 -0.02205,0.3831 0,0.22324 0.02205,0.3762 0.02343,0.15296 0.06752,0.24667 0.04548,0.0923 0.110243,0.13367 0.06477,0.04 0.147451,0.04 0.07993,0 0.143315,-0.04 0.06477,-0.0413 0.108865,-0.13367 0.04548,-0.0937 0.0689,-0.24667 0.02481,-0.15296 0.02481,-0.3762 z"
         style="font-style:normal;font-variant:normal;font-weight:normal;font-stretch:normal;font-size:2.82222223px;font-family:'Liberation Sans Narrow';-inkscape-font-specification:'Liberation Sans Narrow';stroke-width:0.26458332"
         id="path906"
         inkscape:connector-curvature="0" />
    </g>
    <g
       aria-label="x10"
       style="font-style:normal;font-weight:normal;font-size:10.58333302px;line-height:1.25;font-family:sans-serif;letter-spacing:0px;word-spacing:0px;fill:#000000;fill-opacity:1;stroke:none;stroke-width:0.26458332"
       id="text860-5"
       transform="translate(-1.500001,16.29998)">
      <path
         d="m 21.379189,265.47244 -0.329351,-0.61185 -0.330729,0.61185 h -0.219108 l 0.43546,-0.76619 -0.41479,-0.72484 h 0.22462 l 0.304547,0.58015 0.303168,-0.58015 h 0.227376 l -0.414789,0.72209 0.440972,0.76894 z"
         style="font-style:normal;font-variant:normal;font-weight:normal;font-stretch:normal;font-size:2.82222223px;font-family:'Liberation Sans Narrow';-inkscape-font-specification:'Liberation Sans Narrow';stroke-width:0.26458332"
         id="path893"
         inkscape:connector-curvature="0" />
      <path
         d="m 21.807759,265.47244 v -0.21084 h 0.405143 v -1.49379 l -0.35829,0.31281 v -0.23426 l 0.376205,-0.31557 h 0.187413 v 1.73081 h 0.387228 v 0.21084 z"
         style="font-style:normal;font-variant:normal;font-weight:normal;font-stretch:normal;font-size:2.82222223px;font-family:'Liberation Sans Narrow';-inkscape-font-specification:'Liberation Sans Narrow';stroke-width:0.26458332"
         id="path895"
         inkscape:connector-curvature="0" />
      <path
         d="m 24.117351,264.50093 q 0,0.27974 -0.0441,0.47128 -0.04272,0.19017 -0.118512,0.30869 -0.07441,0.11713 -0.176389,0.16812 -0.100596,0.051 -0.216352,0.051 -0.115755,0 -0.216352,-0.051 -0.100596,-0.051 -0.17501,-0.16812 -0.07442,-0.11714 -0.117134,-0.30731 -0.04134,-0.19154 -0.04134,-0.47266 0,-0.29353 0.04134,-0.48507 0.04272,-0.19293 0.117134,-0.30731 0.07441,-0.11437 0.176388,-0.15985 0.101975,-0.0469 0.221865,-0.0469 0.114377,0 0.213596,0.0469 0.100596,0.0455 0.17501,0.15985 0.07441,0.11438 0.117134,0.30731 0.04272,0.19154 0.04272,0.48507 z m -0.206706,0 q 0,-0.23151 -0.02205,-0.38448 -0.02205,-0.15434 -0.06614,-0.24529 -0.0441,-0.0923 -0.108865,-0.12953 -0.06339,-0.0386 -0.144694,-0.0386 -0.08544,0 -0.151585,0.0386 -0.06615,0.0386 -0.110243,0.13091 -0.0441,0.0909 -0.06752,0.24529 -0.02205,0.15296 -0.02205,0.3831 0,0.22324 0.02205,0.3762 0.02343,0.15296 0.06752,0.24667 0.04548,0.0923 0.110243,0.13367 0.06477,0.04 0.14745,0.04 0.07993,0 0.143316,-0.04 0.06477,-0.0413 0.108865,-0.13367 0.04548,-0.0937 0.0689,-0.24667 0.0248,-0.15296 0.0248,-0.3762 z"
         style="font-style:normal;font-variant:normal;font-weight:normal;font-stretch:normal;font-size:2.82222223px;font-family:'Liberation Sans Narrow';-inkscape-font-specification:'Liberation Sans Narrow';stroke-width:0.26458332"
         id="path897"
         inkscape:connector-curvature="0" />
    </g>
    <g
       aria-label="x1"
       style="font-style:normal;font-weight:normal;font-size:10.58333302px;line-height:1.25;font-family:sans-serif;letter-spacing:0px;word-spacing:0px;fill:#000000;fill-opacity:1;stroke:none;stroke-width:0.26458332"
       id="text860-8"
       transform="translate(-1.500001,16.8)">
      <path
         d="M 21.379189,268 21.049838,267.38815 20.719109,268 h -0.219108 l 0.43546,-0.76619 -0.41479,-0.72485 h 0.22462 l 0.304547,0.58016 0.303168,-0.58016 h 0.227376 L 21.165593,267.23105 21.606565,268 Z"
         style="font-style:normal;font-variant:normal;font-weight:normal;font-stretch:normal;font-size:2.82222223px;font-family:'Liberation Sans Narrow';-inkscape-font-specification:'Liberation Sans Narrow';stroke-width:0.26458332"
         id="path888"
         inkscape:connector-curvature="0" />
      <path
         d="m 21.807759,268 v -0.21084 h 0.405143 v -1.49379 l -0.35829,0.31281 v -0.23427 l 0.376205,-0.31557 h 0.187413 v 1.73082 h 0.387228 V 268 Z"
         style="font-style:normal;font-variant:normal;font-weight:normal;font-stretch:normal;font-size:2.82222223px;font-family:'Liberation Sans Narrow';-inkscape-font-specification:'Liberation Sans Narrow';stroke-width:0.26458332"
         id="path890"
         inkscape:connector-curvature="0" />
    </g>
    <g
       aria-label="DOUBLE MUTE"
       style="font-style:normal;font-weight:normal;font-size:10.58333302px;line-height:1.25;font-family:sans-serif;text-align:center;letter-spacing:0px;word-spacing:0px;text-anchor:middle;fill:#000000;fill-opacity:1;stroke:none;stroke-width:0.26458332"
       id="text873"
       transform="translate(-5.2000009,-0.50004)">
      <path
         d="m 9.9750698,176.98072 q 0,0.3638 -0.09095,0.64079 -0.088883,0.27491 -0.2459798,0.46095 -0.1550293,0.18603 -0.3679362,0.28112 -0.2129068,0.0951 -0.4588866,0.0951 H 7.8460009 v -2.91248 h 0.8640299 q 0.2769857,0 0.5084961,0.0848 0.2335775,0.0847 0.4010091,0.26045 0.1674316,0.1757 0.2604492,0.44648 0.095085,0.27079 0.095085,0.64286 z m -0.5043619,0 q 0,-0.25425 -0.057878,-0.43615 -0.055811,-0.1819 -0.1570964,-0.29766 -0.1012858,-0.11782 -0.2439127,-0.17363 -0.1405599,-0.0558 -0.3121256,-0.0558 H 8.3462288 v 1.9699 h 0.4237467 q 0.1508952,0 0.2790527,-0.0641 0.1281576,-0.0641 0.2211751,-0.19017 0.095085,-0.12816 0.1467611,-0.31626 0.053744,-0.18811 0.053744,-0.43615 z"
         style="font-style:normal;font-variant:normal;font-weight:bold;font-stretch:condensed;font-size:4.23333311px;font-family:'Liberation Sans Narrow';-inkscape-font-specification:'Liberation Sans Narrow Bold Condensed';text-align:center;text-anchor:middle;stroke-width:0.26458332"
         id="path875"
         inkscape:connector-curvature="0" />
      <path
         d="m 12.674647,176.98899 q 0,0.34106 -0.08268,0.62011 -0.08268,0.27906 -0.239778,0.47749 -0.15503,0.19844 -0.380339,0.30593 -0.223242,0.10749 -0.506429,0.10749 -0.299723,0 -0.525032,-0.11163 -0.22531,-0.11368 -0.376205,-0.31419 -0.150895,-0.20257 -0.227376,-0.47956 -0.07441,-0.27698 -0.07441,-0.60564 0,-0.34107 0.07855,-0.61599 0.07855,-0.27492 0.23151,-0.46715 0.15503,-0.19431 0.378272,-0.29766 0.225309,-0.10542 0.516764,-0.10542 0.291455,0 0.516764,0.10542 0.22531,0.10542 0.378272,0.29973 0.152962,0.1943 0.23151,0.46922 0.08062,0.27285 0.08062,0.61185 z m -0.510564,0 q 0,-0.22945 -0.04547,-0.41342 -0.04341,-0.18603 -0.132291,-0.31832 -0.08682,-0.13229 -0.217041,-0.20257 -0.130225,-0.0724 -0.301791,-0.0724 -0.1757,0 -0.305924,0.0724 -0.130225,0.0703 -0.219108,0.20257 -0.08888,0.13229 -0.132292,0.31832 -0.04341,0.18397 -0.04341,0.41342 0,0.22737 0.04341,0.41754 0.04547,0.1881 0.132292,0.32453 0.08888,0.13643 0.219108,0.21291 0.132291,0.0765 0.303857,0.0765 0.183968,0 0.314193,-0.0765 0.132291,-0.0786 0.217041,-0.21498 0.08682,-0.13849 0.12609,-0.32659 0.04134,-0.19017 0.04134,-0.41341 z"
         style="font-style:normal;font-variant:normal;font-weight:bold;font-stretch:condensed;font-size:4.23333311px;font-family:'Liberation Sans Narrow';-inkscape-font-specification:'Liberation Sans Narrow Bold Condensed';text-align:center;text-anchor:middle;stroke-width:0.26458332"
         id="path877"
         inkscape:connector-curvature="0" />
      <path
         d="m 14.047173,178.50001 q -0.223242,0 -0.409278,-0.0641 -0.186035,-0.0662 -0.320393,-0.20258 -0.134359,-0.13849 -0.21084,-0.35346 -0.07441,-0.21498 -0.07441,-0.51263 v -1.82108 h 0.500228 v 1.77354 q 0,0.18396 0.03721,0.31832 0.03721,0.13229 0.105419,0.21911 0.07028,0.0848 0.167432,0.12609 0.09922,0.0393 0.219108,0.0393 0.121957,0 0.223242,-0.0413 0.103353,-0.0434 0.1757,-0.13229 0.07441,-0.0889 0.115755,-0.22531 0.04134,-0.13642 0.04134,-0.32453 v -1.75286 h 0.500227 v 1.79007 q 0,0.29973 -0.08061,0.51883 -0.07855,0.21911 -0.221175,0.36381 -0.142627,0.14262 -0.338997,0.2129 -0.196371,0.0682 -0.429948,0.0682 z"
         style="font-style:normal;font-variant:normal;font-weight:bold;font-stretch:condensed;font-size:4.23333311px;font-family:'Liberation Sans Narrow';-inkscape-font-specification:'Liberation Sans Narrow Bold Condensed';text-align:center;text-anchor:middle;stroke-width:0.26458332"
         id="path879"
         inkscape:connector-curvature="0" />
      <path
         d="m 17.676925,177.62771 q 0,0.22117 -0.07441,0.38034 -0.07235,0.15709 -0.198438,0.25838 -0.12609,0.0992 -0.293522,0.14676 -0.167432,0.0455 -0.355534,0.0455 h -1.194759 v -2.91248 h 1.093473 q 0.21084,0 0.376205,0.0455 0.165364,0.0434 0.279053,0.13435 0.113688,0.0909 0.171565,0.22945 0.05788,0.13642 0.05788,0.32246 0,0.24805 -0.113688,0.41961 -0.111621,0.1695 -0.341065,0.22944 0.289388,0.0413 0.440284,0.22325 0.152962,0.17983 0.152962,0.47749 z m -0.640788,-1.26711 q 0,-0.19637 -0.103353,-0.27905 -0.101286,-0.0827 -0.303857,-0.0827 h -0.568441 v 0.7214 h 0.572575 q 0.21084,0 0.305924,-0.0889 0.09715,-0.091 0.09715,-0.27079 z m 0.138493,1.21956 q 0,-0.11575 -0.03721,-0.1943 -0.03721,-0.0786 -0.103353,-0.12609 -0.06408,-0.0475 -0.150895,-0.0682 -0.08682,-0.0207 -0.190169,-0.0207 h -0.63252 v 0.83509 h 0.65319 q 0.09922,0 0.181901,-0.0186 0.08475,-0.0207 0.146761,-0.0682 0.06201,-0.0496 0.09715,-0.13229 0.03514,-0.0827 0.03514,-0.20671 z"
         style="font-style:normal;font-variant:normal;font-weight:bold;font-stretch:condensed;font-size:4.23333311px;font-family:'Liberation Sans Narrow';-inkscape-font-specification:'Liberation Sans Narrow Bold Condensed';text-align:center;text-anchor:middle;stroke-width:0.26458332"
         id="path881"
         inkscape:connector-curvature="0" />
      <path
         d="m 18.065532,178.45866 v -2.91248 h 0.500228 v 2.44119 h 1.281575 v 0.47129 z"
         style="font-style:normal;font-variant:normal;font-weight:bold;font-stretch:condensed;font-size:4.23333311px;font-family:'Liberation Sans Narrow';-inkscape-font-specification:'Liberation Sans Narrow Bold Condensed';text-align:center;text-anchor:middle;stroke-width:0.26458332"
         id="path883"
         inkscape:connector-curvature="0" />
      <path
         d="m 20.190466,178.45866 v -2.91248 h 1.878955 v 0.47129 h -1.378727 v 0.73174 h 1.275374 v 0.47129 h -1.275374 v 0.76687 h 1.44694 v 0.47129 z"
         style="font-style:normal;font-variant:normal;font-weight:bold;font-stretch:condensed;font-size:4.23333311px;font-family:'Liberation Sans Narrow';-inkscape-font-specification:'Liberation Sans Narrow Bold Condensed';text-align:center;text-anchor:middle;stroke-width:0.26458332"
         id="path885"
         inkscape:connector-curvature="0" />
      <path
         d="m 25.457328,178.45866 v -1.76526 q 0,-0.10542 0.0021,-0.21704 0.0021,-0.11162 0.0062,-0.20464 0,0 0.0083,-0.21291 0,0 -0.06821,0.31006 0,0 -0.02894,0.12816 l -0.02894,0.12815 -0.02687,0.11576 -0.0248,0.093 -0.429948,1.6247 h -0.357601 l -0.429948,-1.6247 q -0.01033,-0.0393 -0.02274,-0.093 l -0.02687,-0.11576 -0.03101,-0.12815 -0.02894,-0.12816 q 0,0 -0.07235,-0.31006 0.0041,0.11989 0.01034,0.23565 0.0041,0.0992 0.0062,0.20877 0.0041,0.10955 0.0041,0.19017 v 1.76526 h -0.444417 v -2.91248 h 0.669727 l 0.42788,1.62884 q 0.01654,0.0641 0.03514,0.1571 l 0.03927,0.17983 q 0,0 0.04341,0.21084 0,0 0.04547,-0.2067 0,0 0.02067,-0.0889 l 0.02067,-0.0889 q 0.01033,-0.0434 0.02067,-0.0827 l 0.0186,-0.0703 0.419613,-1.63918 h 0.667659 v 2.91248 z"
         style="font-style:normal;font-variant:normal;font-weight:bold;font-stretch:condensed;font-size:4.23333311px;font-family:'Liberation Sans Narrow';-inkscape-font-specification:'Liberation Sans Narrow Bold Condensed';text-align:center;text-anchor:middle;stroke-width:0.26458332"
         id="path887"
         inkscape:connector-curvature="0" />
      <path
         d="m 27.35902,178.50001 q -0.223242,0 -0.409277,-0.0641 -0.186035,-0.0662 -0.320394,-0.20258 -0.134358,-0.13849 -0.21084,-0.35346 -0.07441,-0.21498 -0.07441,-0.51263 v -1.82108 h 0.500228 v 1.77354 q 0,0.18396 0.03721,0.31832 0.03721,0.13229 0.10542,0.21911 0.07028,0.0848 0.167432,0.12609 0.09922,0.0393 0.219108,0.0393 0.121956,0 0.223242,-0.0413 0.103353,-0.0434 0.1757,-0.13229 0.07441,-0.0889 0.115755,-0.22531 0.04134,-0.13642 0.04134,-0.32453 v -1.75286 h 0.500228 v 1.79007 q 0,0.29973 -0.08062,0.51883 -0.07855,0.21911 -0.221175,0.36381 -0.142627,0.14262 -0.338998,0.2129 -0.19637,0.0682 -0.429948,0.0682 z"
         style="font-style:normal;font-variant:normal;font-weight:bold;font-stretch:condensed;font-size:4.23333311px;font-family:'Liberation Sans Narrow';-inkscape-font-specification:'Liberation Sans Narrow Bold Condensed';text-align:center;text-anchor:middle;stroke-width:0.26458332"
         id="path889"
         inkscape:connector-curvature="0" />
      <path
         d="m 29.951111,176.01747 v 2.44119 h -0.500228 v -2.44119 h -0.771012 v -0.47129 h 2.044319 v 0.47129 z"
         style="font-style:normal;font-variant:normal;font-weight:bold;font-stretch:condensed;font-size:4.23333311px;font-family:'Liberation Sans Narrow';-inkscape-font-specification:'Liberation Sans Narrow Bold Condensed';text-align:center;text-anchor:middle;stroke-width:0.26458332"
         id="path891"
         inkscape:connector-curvature="0" />
      <path
         d="m 30.997042,178.45866 v -2.91248 h 1.878955 v 0.47129 H 31.49727 v 0.73174 h 1.275374 v 0.47129 H 31.49727 v 0.76687 h 1.44694 v 0.47129 z"
         style="font-style:normal;font-variant:normal;font-weight:bold;font-stretch:condensed;font-size:4.23333311px;font-family:'Liberation Sans Narrow';-inkscape-font-specification:'Liberation Sans Narrow Bold Condensed';text-align:center;text-anchor:middle;stroke-width:0.26458332"
         id="path894"
         inkscape:connector-curvature="0" />
    </g>
    <g
       aria-label="IN"
       style="font-style:normal;font-weight:normal;font-size:10.58333302px;line-height:1.25;font-family:sans-serif;letter-spacing:0px;word-spacing:0px;fill:#000000;fill-opacity:1;stroke:none;stroke-width:0.26458332"
       id="text899"
       transform="translate(-1.2999999,-2.5)">
      <path
         d="m 7.9999999,187 v -2.42707 h 0.27044 V 187 Z"
         style="font-style:normal;font-variant:normal;font-weight:normal;font-stretch:normal;font-size:3.52777767px;font-family:'Liberation Sans Narrow';-inkscape-font-specification:'Liberation Sans Narrow';stroke-width:0.26458332"
         id="path926"
         inkscape:connector-curvature="0" />
      <path
         d="m 10.067057,187 -1.0645343,-2.06706 q 0,0 0.00689,0.16709 0.00345,0.0706 0.00517,0.14986 0.00172,0.0775 0.00172,0.13781 V 187 H 8.776869 v -2.42707 h 0.3135037 l 1.0748693,2.08084 q -0.0034,-0.0844 -0.0086,-0.16881 -0.0034,-0.0724 -0.0069,-0.15675 -0.0017,-0.0861 -0.0017,-0.16365 v -1.59163 h 0.242879 V 187 Z"
         style="font-style:normal;font-variant:normal;font-weight:normal;font-stretch:normal;font-size:3.52777767px;font-family:'Liberation Sans Narrow';-inkscape-font-specification:'Liberation Sans Narrow';stroke-width:0.26458332"
         id="path928"
         inkscape:connector-curvature="0" />
    </g>
    <g
       aria-label="OUT"
       style="font-style:normal;font-weight:normal;font-size:10.58333302px;line-height:1.25;font-family:sans-serif;letter-spacing:0px;word-spacing:0px;fill:#000000;fill-opacity:1;stroke:none;stroke-width:0.26458332"
       id="text899-1"
       transform="translate(-8.1,-2.5)">
      <path
         d="m 29.975762,185.74081 q 0,0.28422 -0.06718,0.51677 -0.06718,0.23254 -0.194648,0.39791 -0.127469,0.16536 -0.311781,0.25493 Q 29.219564,187 28.985297,187 q -0.246324,0 -0.430637,-0.093 -0.184312,-0.0947 -0.308336,-0.26183 -0.122301,-0.16881 -0.184312,-0.39963 Q 28,186.0147 28,185.74081 q 0,-0.28422 0.06373,-0.51331 0.06546,-0.2291 0.191203,-0.3893 0.125746,-0.16192 0.310058,-0.24805 0.184313,-0.0879 0.423747,-0.0879 0.237712,0 0.422024,0.0879 0.184313,0.0879 0.308336,0.24977 0.125746,0.16192 0.191203,0.39102 0.06546,0.2291 0.06546,0.50987 z m -0.275608,0 q 0,-0.21876 -0.04651,-0.3979 -0.04651,-0.17915 -0.136082,-0.30662 -0.08957,-0.12747 -0.222208,-0.19637 -0.132637,-0.0689 -0.306614,-0.0689 -0.177422,0 -0.311781,0.0689 -0.134359,0.0689 -0.225654,0.19637 -0.08957,0.12747 -0.134358,0.30662 -0.04306,0.17914 -0.04306,0.3979 0,0.21877 0.04479,0.40136 0.04651,0.18087 0.136081,0.3135 0.08957,0.13092 0.222209,0.20498 0.134359,0.0724 0.308336,0.0724 0.186035,0 0.320394,-0.0741 0.136081,-0.0741 0.222209,-0.20498 0.08785,-0.13264 0.129191,-0.31523 0.04306,-0.18259 0.04306,-0.39791 z"
         style="font-style:normal;font-variant:normal;font-weight:normal;font-stretch:normal;font-size:3.52777767px;font-family:'Liberation Sans Narrow';-inkscape-font-specification:'Liberation Sans Narrow';stroke-width:0.26458332"
         id="path919"
         inkscape:connector-curvature="0" />
      <path
         d="m 31.147094,187 q -0.163642,0 -0.310058,-0.0534 -0.146417,-0.0534 -0.258382,-0.16537 -0.110243,-0.11369 -0.1757,-0.28594 -0.06546,-0.17398 -0.06546,-0.41169 v -1.54512 h 0.27044 v 1.51756 q 0,0.18431 0.03962,0.3135 0.04134,0.12747 0.111966,0.20843 0.07235,0.081 0.170532,0.11886 0.09819,0.0362 0.215319,0.0362 0.11541,0 0.218763,-0.0379 0.103353,-0.0379 0.180868,-0.12058 0.07751,-0.0827 0.122301,-0.21532 0.04479,-0.13436 0.04479,-0.32556 v -1.49517 h 0.268717 v 1.51412 q 0,0.24287 -0.06718,0.42202 -0.06546,0.17742 -0.179145,0.29456 -0.111966,0.11713 -0.26355,0.17397 Q 31.319349,187 31.147094,187 Z"
         style="font-style:normal;font-variant:normal;font-weight:normal;font-stretch:normal;font-size:3.52777767px;font-family:'Liberation Sans Narrow';-inkscape-font-specification:'Liberation Sans Narrow';stroke-width:0.26458332"
         id="path921"
         inkscape:connector-curvature="0" />
      <path
         d="m 33.219319,184.80719 v 2.15836 h -0.266994 v -2.15836 h -0.683852 v -0.26871 h 1.634698 v 0.26871 z"
         style="font-style:normal;font-variant:normal;font-weight:normal;font-stretch:normal;font-size:3.52777767px;font-family:'Liberation Sans Narrow';-inkscape-font-specification:'Liberation Sans Narrow';stroke-width:0.26458332"
         id="path923"
         inkscape:connector-curvature="0" />
    </g>
    <g
       aria-label="FADE IN"
       style="font-style:normal;font-weight:normal;font-size:10.58333302px;line-height:1.25;font-family:sans-serif;letter-spacing:0px;word-spacing:0px;fill:#000000;fill-opacity:1;stroke:none;stroke-width:0.26458332"
       id="text874"
       transform="translate(0.400215,-0.16124)">
      <path
         d="m 9.5725024,221.50289 v 0.90261 h 1.1110436 v 0.27216 H 9.5725024 v 0.98358 H 9.303785 v -2.42707 h 1.414212 v 0.26872 z"
         style="font-style:normal;font-variant:normal;font-weight:normal;font-stretch:normal;font-size:3.52777767px;font-family:'Liberation Sans Narrow';-inkscape-font-specification:'Liberation Sans Narrow';stroke-width:0.26458332"
         id="path876"
         inkscape:connector-curvature="0" />
      <path
         d="m 12.326856,223.66124 -0.227376,-0.70969 h -0.907783 l -0.227376,0.70969 h -0.280775 l 0.813042,-2.42707 h 0.306614 l 0.799262,2.42707 z m -0.563273,-1.76733 q -0.02239,-0.0689 -0.04306,-0.13953 l -0.03617,-0.12919 -0.02756,-0.0965 q -0.01033,-0.0379 -0.01033,-0.0465 -0.0034,0.009 -0.01378,0.0482 -0.0086,0.0396 -0.02412,0.0982 l -0.0379,0.12919 -0.04134,0.13953 -0.254937,0.79754 h 0.74414 z"
         style="font-style:normal;font-variant:normal;font-weight:normal;font-stretch:normal;font-size:3.52777767px;font-family:'Liberation Sans Narrow';-inkscape-font-specification:'Liberation Sans Narrow';stroke-width:0.26458332"
         id="path878"
         inkscape:connector-curvature="0" />
      <path
         d="m 14.557556,222.42273 q 0,0.30317 -0.07579,0.53571 -0.07407,0.23082 -0.204984,0.38757 -0.129191,0.15503 -0.306613,0.23599 -0.177423,0.0792 -0.380683,0.0792 h -0.744141 v -2.42707 h 0.658013 q 0.230822,0 0.423747,0.0706 0.192926,0.0689 0.332452,0.21532 0.141249,0.1447 0.218763,0.36863 0.07924,0.22393 0.07924,0.53399 z m -0.272163,0 q 0,-0.24633 -0.05857,-0.4203 -0.05685,-0.1757 -0.16192,-0.28767 -0.103353,-0.11196 -0.249769,-0.16364 -0.144694,-0.0534 -0.318672,-0.0534 h -0.382405 v 1.89997 h 0.444417 q 0.156752,0 0.289388,-0.062 0.132636,-0.062 0.229099,-0.18431 0.09819,-0.12231 0.153307,-0.3049 0.05512,-0.18259 0.05512,-0.42374 z"
         style="font-style:normal;font-variant:normal;font-weight:normal;font-stretch:normal;font-size:3.52777767px;font-family:'Liberation Sans Narrow';-inkscape-font-specification:'Liberation Sans Narrow';stroke-width:0.26458332"
         id="path880"
         inkscape:connector-curvature="0" />
      <path
         d="m 14.933071,223.66124 v -2.42707 h 1.508952 v 0.26872 h -1.240235 v 0.77859 h 1.15583 v 0.26527 h -1.15583 v 0.84577 h 1.298801 v 0.26872 z"
         style="font-style:normal;font-variant:normal;font-weight:normal;font-stretch:normal;font-size:3.52777767px;font-family:'Liberation Sans Narrow';-inkscape-font-specification:'Liberation Sans Narrow';stroke-width:0.26458332"
         id="path882"
         inkscape:connector-curvature="0" />
      <path
         d="m 17.69776,223.66124 v -2.42707 h 0.27044 v 2.42707 z"
         style="font-style:normal;font-variant:normal;font-weight:normal;font-stretch:normal;font-size:3.52777767px;font-family:'Liberation Sans Narrow';-inkscape-font-specification:'Liberation Sans Narrow';stroke-width:0.26458332"
         id="path884"
         inkscape:connector-curvature="0" />
      <path
         d="m 19.764817,223.66124 -1.064534,-2.06706 q 0,0 0.0069,0.16709 0.0034,0.0706 0.0052,0.14986 0.0017,0.0775 0.0017,0.1378 v 1.61231 h -0.239434 v -2.42707 h 0.313504 l 1.07487,2.08084 q -0.0034,-0.0844 -0.0086,-0.16881 -0.0034,-0.0724 -0.0069,-0.15675 -0.0017,-0.0861 -0.0017,-0.16365 v -1.59163 h 0.242879 v 2.42707 z"
         style="font-style:normal;font-variant:normal;font-weight:normal;font-stretch:normal;font-size:3.52777767px;font-family:'Liberation Sans Narrow';-inkscape-font-specification:'Liberation Sans Narrow';stroke-width:0.26458332"
         id="path886"
         inkscape:connector-curvature="0" />
    </g>
    <g
       aria-label="FADE OUT"
       style="font-style:normal;font-weight:normal;font-size:10.58333302px;line-height:1.25;font-family:sans-serif;letter-spacing:0px;word-spacing:0px;fill:#000000;fill-opacity:1;stroke:none;stroke-width:0.26458332"
       id="text891"
       transform="translate(-7.402711,12.86447)">
      <path
         d="m 15.746429,244.3277 v 0.90262 h 1.111043 v 0.27216 h -1.111043 v 0.98357 h -0.268718 v -2.42707 h 1.414212 v 0.26872 z"
         style="font-style:normal;font-variant:normal;font-weight:normal;font-stretch:normal;font-size:3.52777767px;font-family:'Liberation Sans Narrow';-inkscape-font-specification:'Liberation Sans Narrow';stroke-width:0.26458332"
         id="path896"
         inkscape:connector-curvature="0" />
      <path
         d="m 18.500783,246.48605 -0.227377,-0.70969 h -0.907782 l -0.227377,0.70969 h -0.280775 l 0.813043,-2.42707 h 0.306613 l 0.799262,2.42707 z m -0.563273,-1.76733 q -0.02239,-0.0689 -0.04306,-0.13953 L 17.85828,244.45 17.83072,244.3535 q -0.01034,-0.0379 -0.01034,-0.0465 -0.0034,0.009 -0.01378,0.0482 -0.0086,0.0396 -0.02412,0.0982 l -0.0379,0.12919 -0.04134,0.13952 -0.254937,0.79754 h 0.744141 z"
         style="font-style:normal;font-variant:normal;font-weight:normal;font-stretch:normal;font-size:3.52777767px;font-family:'Liberation Sans Narrow';-inkscape-font-specification:'Liberation Sans Narrow';stroke-width:0.26458332"
         id="path898"
         inkscape:connector-curvature="0" />
      <path
         d="m 20.731482,245.24754 q 0,0.30317 -0.07579,0.53571 -0.07407,0.23083 -0.204983,0.38758 -0.129191,0.15503 -0.306614,0.23599 -0.177422,0.0792 -0.380683,0.0792 h -0.74414 v -2.42707 h 0.658013 q 0.230821,0 0.423747,0.0706 0.192925,0.0689 0.332451,0.21532 0.141249,0.14469 0.218764,0.36862 0.07924,0.22393 0.07924,0.53399 z m -0.272163,0 q 0,-0.24632 -0.05857,-0.4203 -0.05684,-0.1757 -0.16192,-0.28767 -0.103352,-0.11196 -0.249769,-0.16364 -0.144694,-0.0534 -0.318671,-0.0534 h -0.382406 v 1.89997 H 19.7324 q 0.156752,0 0.289388,-0.062 0.132637,-0.062 0.229099,-0.18431 0.09819,-0.1223 0.153307,-0.30489 0.05512,-0.18259 0.05512,-0.42375 z"
         style="font-style:normal;font-variant:normal;font-weight:normal;font-stretch:normal;font-size:3.52777767px;font-family:'Liberation Sans Narrow';-inkscape-font-specification:'Liberation Sans Narrow';stroke-width:0.26458332"
         id="path901"
         inkscape:connector-curvature="0" />
      <path
         d="m 21.106997,246.48605 v -2.42707 h 1.508952 v 0.26872 h -1.240234 v 0.77859 h 1.155829 v 0.26528 h -1.155829 v 0.84577 h 1.298801 v 0.26871 z"
         style="font-style:normal;font-variant:normal;font-weight:normal;font-stretch:normal;font-size:3.52777767px;font-family:'Liberation Sans Narrow';-inkscape-font-specification:'Liberation Sans Narrow';stroke-width:0.26458332"
         id="path903"
         inkscape:connector-curvature="0" />
      <path
         d="m 25.718258,245.26132 q 0,0.28422 -0.06718,0.51677 -0.06718,0.23254 -0.194648,0.3979 -0.127468,0.16537 -0.311781,0.25494 -0.18259,0.0896 -0.416856,0.0896 -0.246325,0 -0.430637,-0.093 -0.184313,-0.0947 -0.308336,-0.26183 -0.122301,-0.16881 -0.184313,-0.39963 -0.06201,-0.23082 -0.06201,-0.50471 0,-0.28422 0.06373,-0.51332 0.06546,-0.2291 0.191202,-0.38929 0.125746,-0.16192 0.310059,-0.24805 0.184313,-0.0879 0.423747,-0.0879 0.237711,0 0.422024,0.0879 0.184312,0.0879 0.308336,0.24977 0.125746,0.16192 0.191203,0.39102 0.06546,0.2291 0.06546,0.50987 z m -0.275608,0 q 0,-0.21876 -0.04651,-0.39791 -0.04651,-0.17914 -0.136081,-0.30661 -0.08957,-0.12747 -0.222209,-0.19637 -0.132636,-0.0689 -0.306613,-0.0689 -0.177423,0 -0.311781,0.0689 -0.134359,0.0689 -0.225654,0.19637 -0.08957,0.12747 -0.134359,0.30661 -0.04306,0.17915 -0.04306,0.39791 0,0.21877 0.04479,0.40136 0.04651,0.18086 0.136081,0.3135 0.08957,0.13091 0.222209,0.20498 0.134358,0.0724 0.308336,0.0724 0.186035,0 0.320393,-0.0741 0.136082,-0.0741 0.222209,-0.20498 0.08785,-0.13264 0.129191,-0.31523 0.04306,-0.18259 0.04306,-0.39791 z"
         style="font-style:normal;font-variant:normal;font-weight:normal;font-stretch:normal;font-size:3.52777767px;font-family:'Liberation Sans Narrow';-inkscape-font-specification:'Liberation Sans Narrow';stroke-width:0.26458332"
         id="path905"
         inkscape:connector-curvature="0" />
      <path
         d="m 26.88959,246.5205 q -0.163642,0 -0.310058,-0.0534 -0.146417,-0.0534 -0.258382,-0.16537 -0.110243,-0.11369 -0.1757,-0.28594 -0.06546,-0.17398 -0.06546,-0.41169 v -1.54513 h 0.27044 v 1.51757 q 0,0.18431 0.03962,0.3135 0.04134,0.12747 0.111965,0.20843 0.07235,0.081 0.170532,0.11886 0.09819,0.0362 0.215319,0.0362 0.11541,0 0.218763,-0.0379 0.103353,-0.0379 0.180868,-0.12057 0.07751,-0.0827 0.122301,-0.21532 0.04479,-0.13436 0.04479,-0.32556 V 244.059 h 0.268717 v 1.51412 q 0,0.24288 -0.06718,0.42203 -0.06546,0.17742 -0.179145,0.29455 -0.111965,0.11714 -0.26355,0.17398 -0.151584,0.0568 -0.323839,0.0568 z"
         style="font-style:normal;font-variant:normal;font-weight:normal;font-stretch:normal;font-size:3.52777767px;font-family:'Liberation Sans Narrow';-inkscape-font-specification:'Liberation Sans Narrow';stroke-width:0.26458332"
         id="path907"
         inkscape:connector-curvature="0" />
      <path
         d="m 28.961815,244.3277 v 2.15835 H 28.69482 v -2.15835 h -0.683851 v -0.26872 h 1.634697 v 0.26872 z"
         style="font-style:normal;font-variant:normal;font-weight:normal;font-stretch:normal;font-size:3.52777767px;font-family:'Liberation Sans Narrow';-inkscape-font-specification:'Liberation Sans Narrow';stroke-width:0.26458332"
         id="path909"
         inkscape:connector-curvature="0" />
    </g>
    <path
       style="fill:none;stroke:#000000;stroke-width:0.26458332px;stroke-linecap:butt;stroke-linejoin:miter;stroke-opacity:1"
       d="M 7.6200002,190.86771 H 22.860001"
       id="path899"
       inkscape:connector-curvature="0" />
    <path
       style="fill:none;stroke:#000000;stroke-width:0.26458332px;stroke-linecap:butt;stroke-linejoin:miter;stroke-opacity:1"
       d="M 7.6199998,210.86771 H 22.860001"
       id="path899-3"
       inkscape:connector-curvature="0" />
    <path
       style="fill:none;stroke:#000000;stroke-width:0.26458332px;stroke-linecap:butt;stroke-linejoin:miter;stroke-opacity:1"
       d="m 7.6200002,190.86771 15.2400008,20"
       id="path916"
       inkscape:connector-curvature="0" />
    <path
       style="fill:none;stroke:#000000;stroke-width:0.26458332px;stroke-linecap:butt;stroke-linejoin:miter;stroke-opacity:1"
       d="m 7.6199996,210.86771 15.2400014,-20"
       id="path918"
       inkscape:connector-curvature="0" />
    <g
       aria-label="x100"
       style="font-style:normal;font-weight:normal;font-size:10.58333302px;line-height:1.25;font-family:sans-serif;letter-spacing:0px;word-spacing:0px;fill:#000000;fill-opacity:1;stroke:none;stroke-width:0.26458332"
       id="text860-3"
       transform="translate(-1.500001,-19.90002)">
      <path
         d="m 21.379189,262.97244 -0.329351,-0.61185 -0.330729,0.61185 h -0.219108 l 0.43546,-0.76619 -0.41479,-0.72484 h 0.22462 l 0.304547,0.58015 0.303168,-0.58015 h 0.227376 l -0.414789,0.72209 0.440972,0.76894 z"
         style="font-style:normal;font-variant:normal;font-weight:normal;font-stretch:normal;font-size:2.82222223px;font-family:'Liberation Sans Narrow';-inkscape-font-specification:'Liberation Sans Narrow';stroke-width:0.26458332"
         id="path900-6"
         inkscape:connector-curvature="0" />
      <path
         d="m 21.807759,262.97244 v -0.21084 h 0.405143 v -1.49379 l -0.35829,0.31281 v -0.23426 l 0.376205,-0.31557 h 0.187413 v 1.73081 h 0.387228 v 0.21084 z"
         style="font-style:normal;font-variant:normal;font-weight:normal;font-stretch:normal;font-size:2.82222223px;font-family:'Liberation Sans Narrow';-inkscape-font-specification:'Liberation Sans Narrow';stroke-width:0.26458332"
         id="path902-7"
         inkscape:connector-curvature="0" />
      <path
         d="m 24.117351,262.00093 q 0,0.27974 -0.0441,0.47128 -0.04272,0.19017 -0.118512,0.30869 -0.07441,0.11713 -0.176389,0.16812 -0.100596,0.051 -0.216352,0.051 -0.115755,0 -0.216352,-0.051 -0.100596,-0.051 -0.17501,-0.16812 -0.07442,-0.11714 -0.117134,-0.30731 -0.04134,-0.19154 -0.04134,-0.47266 0,-0.29353 0.04134,-0.48507 0.04272,-0.19293 0.117134,-0.30731 0.07441,-0.11437 0.176388,-0.15985 0.101975,-0.0469 0.221865,-0.0469 0.114377,0 0.213596,0.0469 0.100596,0.0455 0.17501,0.15985 0.07441,0.11438 0.117134,0.30731 0.04272,0.19154 0.04272,0.48507 z m -0.206706,0 q 0,-0.23151 -0.02205,-0.38448 -0.02205,-0.15434 -0.06614,-0.24529 -0.0441,-0.0923 -0.108865,-0.12953 -0.06339,-0.0386 -0.144694,-0.0386 -0.08544,0 -0.151585,0.0386 -0.06615,0.0386 -0.110243,0.13091 -0.0441,0.0909 -0.06752,0.24529 -0.02205,0.15296 -0.02205,0.3831 0,0.22324 0.02205,0.3762 0.02343,0.15296 0.06752,0.24667 0.04548,0.0923 0.110243,0.13367 0.06477,0.04 0.14745,0.04 0.07993,0 0.143316,-0.04 0.06477,-0.0413 0.108865,-0.13367 0.04548,-0.0937 0.0689,-0.24667 0.0248,-0.15296 0.0248,-0.3762 z"
         style="font-style:normal;font-variant:normal;font-weight:normal;font-stretch:normal;font-size:2.82222223px;font-family:'Liberation Sans Narrow';-inkscape-font-specification:'Liberation Sans Narrow';stroke-width:0.26458332"
         id="path904-5"
         inkscape:connector-curvature="0" />
      <path
         d="m 25.407195,262.00093 q 0,0.27974 -0.0441,0.47128 -0.04272,0.19017 -0.118512,0.30869 -0.07441,0.11713 -0.176389,0.16812 -0.100596,0.051 -0.216352,0.051 -0.115755,0 -0.216352,-0.051 -0.100596,-0.051 -0.17501,-0.16812 -0.07441,-0.11714 -0.117134,-0.30731 -0.04134,-0.19154 -0.04134,-0.47266 0,-0.29353 0.04134,-0.48507 0.04272,-0.19293 0.117134,-0.30731 0.07441,-0.11437 0.176388,-0.15985 0.101975,-0.0469 0.221865,-0.0469 0.114377,0 0.213596,0.0469 0.100596,0.0455 0.17501,0.15985 0.07441,0.11438 0.117134,0.30731 0.04272,0.19154 0.04272,0.48507 z m -0.206706,0 q 0,-0.23151 -0.02205,-0.38448 -0.02205,-0.15434 -0.06614,-0.24529 -0.0441,-0.0923 -0.108865,-0.12953 -0.06339,-0.0386 -0.144694,-0.0386 -0.08544,0 -0.151585,0.0386 -0.06614,0.0386 -0.110243,0.13091 -0.0441,0.0909 -0.06752,0.24529 -0.02205,0.15296 -0.02205,0.3831 0,0.22324 0.02205,0.3762 0.02343,0.15296 0.06752,0.24667 0.04548,0.0923 0.110243,0.13367 0.06477,0.04 0.147451,0.04 0.07993,0 0.143315,-0.04 0.06477,-0.0413 0.108865,-0.13367 0.04548,-0.0937 0.0689,-0.24667 0.02481,-0.15296 0.02481,-0.3762 z"
         style="font-style:normal;font-variant:normal;font-weight:normal;font-stretch:normal;font-size:2.82222223px;font-family:'Liberation Sans Narrow';-inkscape-font-specification:'Liberation Sans Narrow';stroke-width:0.26458332"
         id="path906-3"
         inkscape:connector-curvature="0" />
    </g>
    <g
       aria-label="x1"
       style="font-style:normal;font-weight:normal;font-size:10.58333302px;line-height:1.25;font-family:sans-serif;letter-spacing:0px;word-spacing:0px;fill:#000000;fill-opacity:1;stroke:none;stroke-width:0.26458332"
       id="text860-8-5"
       transform="translate(-1.500001,-18.9)">
      <path
         d="M 21.379189,268 21.049838,267.38815 20.719109,268 h -0.219108 l 0.43546,-0.76619 -0.41479,-0.72485 h 0.22462 l 0.304547,0.58016 0.303168,-0.58016 h 0.227376 L 21.165593,267.23105 21.606565,268 Z"
         style="font-style:normal;font-variant:normal;font-weight:normal;font-stretch:normal;font-size:2.82222223px;font-family:'Liberation Sans Narrow';-inkscape-font-specification:'Liberation Sans Narrow';stroke-width:0.26458332"
         id="path888-6"
         inkscape:connector-curvature="0" />
      <path
         d="m 21.807759,268 v -0.21084 h 0.405143 v -1.49379 l -0.35829,0.31281 v -0.23427 l 0.376205,-0.31557 h 0.187413 v 1.73082 h 0.387228 V 268 Z"
         style="font-style:normal;font-variant:normal;font-weight:normal;font-stretch:normal;font-size:2.82222223px;font-family:'Liberation Sans Narrow';-inkscape-font-specification:'Liberation Sans Narrow';stroke-width:0.26458332"
         id="path890-2"
         inkscape:connector-curvature="0" />
    </g>
    <g
       aria-label="x10"
       style="font-style:normal;font-weight:normal;font-size:10.58333302px;line-height:1.25;font-family:sans-serif;letter-spacing:0px;word-spacing:0px;fill:#000000;fill-opacity:1;stroke:none;stroke-width:0.26458332"
       id="text860-5-9"
       transform="translate(-1.500001,-19.40002)">
      <path
         d="m 21.379189,265.47244 -0.329351,-0.61185 -0.330729,0.61185 h -0.219108 l 0.43546,-0.76619 -0.41479,-0.72484 h 0.22462 l 0.304547,0.58015 0.303168,-0.58015 h 0.227376 l -0.414789,0.72209 0.440972,0.76894 z"
         style="font-style:normal;font-variant:normal;font-weight:normal;font-stretch:normal;font-size:2.82222223px;font-family:'Liberation Sans Narrow';-inkscape-font-specification:'Liberation Sans Narrow';stroke-width:0.26458332"
         id="path893-1"
         inkscape:connector-curvature="0" />
      <path
         d="m 21.807759,265.47244 v -0.21084 h 0.405143 v -1.49379 l -0.35829,0.31281 v -0.23426 l 0.376205,-0.31557 h 0.187413 v 1.73081 h 0.387228 v 0.21084 z"
         style="font-style:normal;font-variant:normal;font-weight:normal;font-stretch:normal;font-size:2.82222223px;font-family:'Liberation Sans Narrow';-inkscape-font-specification:'Liberation Sans Narrow';stroke-width:0.26458332"
         id="path895-2"
         inkscape:connector-curvature="0" />
      <path
         d="m 24.117351,264.50093 q 0,0.27974 -0.0441,0.47128 -0.04272,0.19017 -0.118512,0.30869 -0.07441,0.11713 -0.176389,0.16812 -0.100596,0.051 -0.216352,0.051 -0.115755,0 -0.216352,-0.051 -0.100596,-0.051 -0.17501,-0.16812 -0.07442,-0.11714 -0.117134,-0.30731 -0.04134,-0.19154 -0.04134,-0.47266 0,-0.29353 0.04134,-0.48507 0.04272,-0.19293 0.117134,-0.30731 0.07441,-0.11437 0.176388,-0.15985 0.101975,-0.0469 0.221865,-0.0469 0.114377,0 0.213596,0.0469 0.100596,0.0455 0.17501,0.15985 0.07441,0.11438 0.117134,0.30731 0.04272,0.19154 0.04272,0.48507 z m -0.206706,0 q 0,-0.23151 -0.02205,-0.38448 -0.02205,-0.15434 -0.06614,-0.24529 -0.0441,-0.0923 -0.108865,-0.12953 -0.06339,-0.0386 -0.144694,-0.0386 -0.08544,0 -0.151585,0.0386 -0.06615,0.0386 -0.110243,0.13091 -0.0441,0.0909 -0.06752,0.24529 -0.02205,0.15296 -0.02205,0.3831 0,0.22324 0.02205,0.3762 0.02343,0.15296 0.06752,0.24667 0.04548,0.0923 0.110243,0.13367 0.06477,0.04 0.14745,0.04 0.07993,0 0.143316,-0.04 0.06477,-0.0413 0.108865,-0.13367 0.04548,-0.0937 0.0689,-0.24667 0.0248,-0.15296 0.0248,-0.3762 z"
         style="font-style:normal;font-variant:normal;font-weight:normal;font-stretch:normal;font-size:2.82222223px;font-family:'Liberation Sans Narrow';-inkscape-font-specification:'Liberation Sans Narrow';stroke-width:0.26458332"
         id="path897-7"
         inkscape:connector-curvature="0" />
    </g>
  </g>
  <g
     inkscape:groupmode="layer"
     id="layer2"
     inkscape:label="components"
     style="display:none">
    <circle
       style="fill:#00ff00;stroke-width:0.26458332"
       id="path3738"
       cx="10.325807"
       cy="38.5"
       r="5"
       inkscape:label="Input" />
    <circle
       style="fill:#0000ff;stroke-width:0.26458332"
       id="path3740"
       cx="30.106001"
       cy="38.5"
       r="5"
       inkscape:label="Output" />
    <rect
       style="fill:#ff0000;stroke-width:0.26458332"
       id="rect3742"
       width="16"
       height="16"
       x="12.435484"
       y="54.716125" />
    <rect
       style="fill:#ff00ff;stroke-width:0.26458332"
       id="rect3744"
       width="14"
       height="14"
       x="13.435"
       y="55.716" />
  </g>
</svg>
